<?xml version="1.0" encoding="UTF-8"?>
<svg xmlns="http://www.w3.org/2000/svg" viewBox="0 0 1440 480" width="1440" height="480" role="img" aria-label="Abstract outlines of peacock and peonies">
  <defs>
    <linearGradient id="pea" x1="0%" y1="0%" x2="100%" y2="0%">
      <stop offset="0%" stop-color="#0f9dbd"/>
      <stop offset="50%" stop-color="#2b6cb0"/>
      <stop offset="100%" stop-color="#7e22ce"/>
    </linearGradient>
    <linearGradient id="peony" x1="0%" y1="0%" x2="0%" y2="100%">
      <stop offset="0%" stop-color="#d946ef"/>
      <stop offset="60%" stop-color="#b91c1c"/>
      <stop offset="100%" stop-color="#eab308"/>
    </linearGradient>
    <filter id="soft">
      <feGaussianBlur in="SourceGraphic" stdDeviation="0.6"/>
    </filter>
  </defs>

  <!-- soft decorative waves behind -->
  <path d="M0,430 C240,380 360,420 600,400 C900,375 1040,430 1440,390 L1440,480 L0,480 Z"
        fill="url(#pea)" opacity="0.08"/>
  <path d="M0,450 C220,420 400,455 720,430 C980,410 1180,450 1440,420 L1440,480 L0,480 Z"
        fill="url(#peony)" opacity="0.06"/>

  <!-- Peacock outline (left) -->
  <g transform="translate(180,60) scale(1.05)">
    <!-- head + neck -->
    <path d="M0,260 C20,180 80,120 160,110 C230,105 280,140 300,185
             C320,230 300,280 250,300 C220,315 180,310 150,290
             C120,270 100,260 80,260 Z"
          fill="none" stroke="url(#pea)" stroke-width="6" />
    <!-- beak -->
    <path d="M300,185 L350,175 L300,200" fill="none" stroke="#eab308" stroke-width="5"/>
    <!-- crest -->
    <path d="M220,95 L230,60 M235,92 L255,50 M250,95 L285,55" 
          stroke="url(#pea)" stroke-width="5" stroke-linecap="round" fill="none"/>
    <!-- eye -->
    <circle cx="250" cy="190" r="6" fill="#eab308"/>
    <circle cx="250" cy="190" r="12" fill="none" stroke="#0ea5e9" stroke-width="4"/>
    <!-- tail fan simplified -->
    <g opacity="0.9" filter="url(#soft)">
      <path d="M70,260 C-40,240 -60,180 -30,140 C20,80 120,80 160,110" 
            fill="none" stroke="url(#pea)" stroke-width="8" stroke-linecap="round"/>
      <path d="M60,270 C-80,280 -120,220 -100,170 C-60,100 30,90 90,120" 
            fill="none" stroke="#22d3ee" stroke-width="6" stroke-linecap="round"/>
      <path d="M50,280 C-90,320 -170,260 -160,200 C-120,140 -10,120 60,140" 
            fill="none" stroke="#7e22ce" stroke-width="5" stroke-linecap="round"/>
      <!-- feather eyes -->
      <circle cx="-40" cy="190" r="9" fill="none" stroke="#eab308" stroke-width="4"/>
      <circle cx="-120" cy="220" r="8" fill="none" stroke="#22d3ee" stroke-width="3"/>
      <circle cx="-10" cy="150" r="7" fill="none" stroke="#0ea5e9" stroke-width="3"/>
    </g>
  </g>

  <!-- Peony outlines (right) -->
  <g transform="translate(980,120) scale(0.95)">
    <path d="M120,60 C80,60 40,80 25,110 C10,140 20,170 40,185 
             C70,210 110,220 150,210 C200,198 240,170 245,130
             C250,95 220,70 185,60 C160,55 140,55 120,60 Z"
          fill="none" stroke="url(#peony)" stroke-width="6"/>
    <path d="M70,110 C90,90 120,85 145,95 M95,140 C120,130 160,125 190,138 
             M60,170 C90,170 130,165 170,160"
          fill="none" stroke="#f472b6" stroke-width="4" stroke-linecap="round"/>
    <!-- second bloom -->
    <g transform="translate(210,90) scale(0.85)">
      <path d="M120,60 C80,60 45,78 30,108 C15,138 22,168 45,185 
               C72,205 110,215 150,205 C190,195 220,168 225,135
               C230,102 205,75 175,65 Z"
            fill="none" stroke="url(#peony)" stroke-width="5"/>
      <path d="M85,115 C110,100 145,98 170,108 M80,150 C115,150 150,145 185,140" 
            fill="none" stroke="#eab308" stroke-width="3" stroke-linecap="round"/>
    </g>
  </g>
</svg>
